<svg id="Layer_1" data-name="Layer 1" xmlns="http://www.w3.org/2000/svg" viewBox="0 0 356.81 87.98"><defs><style>.cls-1{fill:#244f45;}.cls-1,.cls-2,.cls-3{fill-rule:evenodd;}.cls-2{fill:#a6ce39;}.cls-3{fill:#f7921e;}.cls-4{fill:#00295b;}</style></defs><path class="cls-1" d="M19.82,51.52C15.35,47.12,6,40.1,8.43,30.56c4-15.38,32-15.3,45.66-12.66,12.84,2.49,19,5.27,21.78,6.6a9.17,9.17,0,0,0,.7-3.78C70.69,17.25,45,6,19.57,11.13-2,15.48-5.8,30.34,8.42,43.55c2.53,2.35,9.22,7.58,11.4,8"/><path class="cls-2" d="M52.26,5.75C58.42,4.55,69.51.82,76,8.24c10.44,12-5.55,35.07-15.45,44.79C51.2,62.2,45.45,65.67,42.75,67.23A9.15,9.15,0,0,0,45.47,70c6.19-2.87,30-17.71,40.2-41.52C94.3,8.23,84.24-3.36,65.29.86c-3.37.76-11.47,3.31-13,4.89"/><path class="cls-3" d="M72.94,57.93c-1.8,6-3.64,17.57-13.22,19.86-15.45,3.69-28.49-21.2-32.51-34.48C23.42,30.79,23,24.08,22.89,21a9,9,0,0,0-3.67,1.15C18.88,28.94,21,56.94,37.34,77c13.89,17,28.82,13.48,33.87-5.27.9-3.33,2.4-11.69,1.73-13.8"/><path class="cls-4" d="M275.93,51.51h13.49a4.07,4.07,0,0,0,.61-.07h0a2.78,2.78,0,0,0,.56-.17h0a4.3,4.3,0,0,0,.52-.28,3.08,3.08,0,0,0,.44-.37,2.6,2.6,0,0,0,.37-.45,3.29,3.29,0,0,0,.29-.52h0a3.62,3.62,0,0,0,.17-.56,3.08,3.08,0,0,0,.06-.61h0v-5h0a3.08,3.08,0,0,0-.06-.61,3.62,3.62,0,0,0-.17-.56h0a3.81,3.81,0,0,0-.29-.52,3.13,3.13,0,0,0-.36-.44h0a2.54,2.54,0,0,0-.44-.37,2.61,2.61,0,0,0-.52-.28h0a2.81,2.81,0,0,0-.56-.18h0a3,3,0,0,0-.61-.06H275.93a2.91,2.91,0,0,0-.6.06,2.7,2.7,0,0,0-.57.18h0a2.87,2.87,0,0,0-.52.28,2.52,2.52,0,0,0-.45.37,3.75,3.75,0,0,0-.37.44,2.84,2.84,0,0,0-.27.52h0a3.62,3.62,0,0,0-.17.56,4.07,4.07,0,0,0-.07.61h0v5h0a4.07,4.07,0,0,0,.07.61,3.62,3.62,0,0,0,.17.56h0a2.84,2.84,0,0,0,.27.52,3,3,0,0,0,.82.82,3.66,3.66,0,0,0,.52.28h0a2.78,2.78,0,0,0,.56.17,4.07,4.07,0,0,0,.61.07m0-15.15h13.49a7.11,7.11,0,0,1,1.14.09,6.43,6.43,0,0,1,1.09.27h0a6.64,6.64,0,0,1,1,.43,7,7,0,0,1,.92.58h0a6.17,6.17,0,0,1,.82.7,7,7,0,0,1,.71.82h0a6.45,6.45,0,0,1,.57.93,7,7,0,0,1,.7,2.1,7.11,7.11,0,0,1,.09,1.14h0v5h0a7.11,7.11,0,0,1-.09,1.14,6.43,6.43,0,0,1-.27,1.09h0a6.52,6.52,0,0,1-.43,1,6.65,6.65,0,0,1-1.28,1.75h0a6.14,6.14,0,0,1-.82.71,6.31,6.31,0,0,1-.93.58,8.28,8.28,0,0,1-1,.43h0a7.87,7.87,0,0,1-1.09.26,8.48,8.48,0,0,1-1.14.1H275.93a8.48,8.48,0,0,1-1.14-.1,7.54,7.54,0,0,1-1.09-.26h0a6.49,6.49,0,0,1-1-.42,6.31,6.31,0,0,1-.93-.58h0a7.06,7.06,0,0,1-.83-.71h0a7.77,7.77,0,0,1-.7-.82,6.31,6.31,0,0,1-.58-.93,6.49,6.49,0,0,1-.42-1h0a6.43,6.43,0,0,1-.27-1.09,8.48,8.48,0,0,1-.1-1.14h0v-5h0a8.48,8.48,0,0,1,.1-1.14,7.33,7.33,0,0,1,.69-2.1,7.56,7.56,0,0,1,.58-.93h0a7.77,7.77,0,0,1,.7-.82,8,8,0,0,1,.83-.71h0a6.25,6.25,0,0,1,.93-.57,7,7,0,0,1,1-.43h0a6.94,6.94,0,0,1,1.09-.27,7.11,7.11,0,0,1,1.14-.09Zm-27.44.12,7.3,6.7,7.29-6.7.13-.12h4.91l.13.13.05,0,.33.32-.34.32-5.66,5.2,0,0-.33.32L259,45.78a4,4,0,0,0-.51.58,4.06,4.06,0,0,0-.38.63,3.4,3.4,0,0,0-.3,1.41v7.14h-4V48.4c0-.13,0-.28,0-.43s0-.29,0-.43h0c0-.13,0-.27.07-.42h0l0-.16-10.63-9.77-.33-.3.31-.33,0,0,.13-.14h4.92Zm-8.34,19a2.18,2.18,0,0,1-.52.07H223.26a10,10,0,0,1-1.21-.08,9,9,0,0,1-1.17-.23h0a7.43,7.43,0,0,1-1.12-.39h0a8.62,8.62,0,0,1-1.05-.53h0a7.47,7.47,0,0,1-1-.67,9.83,9.83,0,0,1-.91-.8,10.79,10.79,0,0,1-.84-1,9.92,9.92,0,0,1-.69-1.08,9.4,9.4,0,0,1-.55-1.16,10.39,10.39,0,0,1-.4-1.23h0a10.51,10.51,0,0,1-.3-2.59h0a9.31,9.31,0,0,1,.15-1.51,8.88,8.88,0,0,1,.4-1.45h0a9.68,9.68,0,0,1,.62-1.35,9.84,9.84,0,0,1,.82-1.24h0a10.44,10.44,0,0,1,1-1.1,9.78,9.78,0,0,1,1.16-.95,8.51,8.51,0,0,1,1.29-.78,10.28,10.28,0,0,1,1.4-.58h0a10.27,10.27,0,0,1,1.5-.37,9.86,9.86,0,0,1,1.56-.12h16.81v4H223.92a5.5,5.5,0,0,0-.91.08,5.36,5.36,0,0,0-.88.21h0a6.71,6.71,0,0,0-.82.34,6,6,0,0,0-.77.46h0a6.05,6.05,0,0,0-.68.55,5.25,5.25,0,0,0-.6.65h0a4.82,4.82,0,0,0-.49.72,4.93,4.93,0,0,0-.37.77h0a4.45,4.45,0,0,0-.24.81,6.27,6.27,0,0,0-.09.86,6.74,6.74,0,0,0,0,.77,6.36,6.36,0,0,0,.14.76,6.18,6.18,0,0,0,.23.73,6,6,0,0,0,.32.68h0a5.66,5.66,0,0,0,.89,1.19,5.13,5.13,0,0,0,.77.64,5.51,5.51,0,0,0,.86.47,5.21,5.21,0,0,0,.95.29h0a5.56,5.56,0,0,0,1,.1H237.6V48h-9.88v-4h11.91a1.77,1.77,0,0,1,.52.07h0a1.87,1.87,0,0,1,.49.2,2.24,2.24,0,0,1,.41.32,1.78,1.78,0,0,1,.31.4h0a2.13,2.13,0,0,1,.21.49h0a2.33,2.33,0,0,1,.07.53h0v7.57h0a2.19,2.19,0,0,1-.07.53,2,2,0,0,1-.21.49h0a1.87,1.87,0,0,1-.72.72A2.33,2.33,0,0,1,240.15,55.47ZM187.8,40.4v3.53h18.34a2.42,2.42,0,0,0,.47-.07h0a1.78,1.78,0,0,0,.43-.18,2.24,2.24,0,0,0,.38-.29,2.16,2.16,0,0,0,.29-.37,1.51,1.51,0,0,0,.25-.86,1.93,1.93,0,0,0-.06-.49,1.52,1.52,0,0,0-.16-.42h0a1.8,1.8,0,0,0-.24-.35,1.4,1.4,0,0,0-.33-.27,1.24,1.24,0,0,0-.37-.17,1.42,1.42,0,0,0-.42-.06H187.8ZM211,45.33a5.56,5.56,0,0,1-.42.54,5.57,5.57,0,0,1,.43.56,5.83,5.83,0,0,1,.52,1h0a6.19,6.19,0,0,1,.34,1.11,6.61,6.61,0,0,1,.11,1.2h0v5.81h-4V49.73h0a2.63,2.63,0,0,0-.05-.49,1.68,1.68,0,0,0-.17-.42h0a1.54,1.54,0,0,0-.25-.36,1.69,1.69,0,0,0-.32-.27h0a1.53,1.53,0,0,0-.37-.16,1.47,1.47,0,0,0-.42-.06H187.8v7.57h-4V38.38h0a1.83,1.83,0,0,1,.07-.53,1.81,1.81,0,0,1,.2-.48,2.15,2.15,0,0,1,.32-.41,2.08,2.08,0,0,1,.4-.32h0a1.68,1.68,0,0,1,.48-.2,1.88,1.88,0,0,1,.53-.07h20.61a6,6,0,0,1,1.14.11,5.56,5.56,0,0,1,1.07.34,6.36,6.36,0,0,1,1,.53,6.15,6.15,0,0,1,.83.7h0a5.15,5.15,0,0,1,.68.86,5.35,5.35,0,0,1,.51,1h0a5.59,5.59,0,0,1,.32,1.1,5.53,5.53,0,0,1,.11,1.17h0a5.93,5.93,0,0,1-.11,1.13,5.56,5.56,0,0,1-.34,1.07h0a6.36,6.36,0,0,1-.53,1ZM150.49,36.8V53.94h0a2.71,2.71,0,0,1,0,.41,2.55,2.55,0,0,1-.13.39h0a1.75,1.75,0,0,1-.2.35,2,2,0,0,1-.27.31l-.13.12h-2.48l-.12-.08-20.2-13.78V55.54h-4V37.85a2.31,2.31,0,0,1,0-.37,2.47,2.47,0,0,1,.11-.36h0a2.59,2.59,0,0,1,.17-.33h0a2.77,2.77,0,0,1,.22-.29l.14-.14h2.74l.11.08,20.06,13.67V36.36h4ZM119,44.27v3.82H97V51.5h22v4h-24a2.19,2.19,0,0,1-.53-.07,2.33,2.33,0,0,1-.49-.21,2,2,0,0,1-.4-.31h0a2.59,2.59,0,0,1-.31-.41,1.87,1.87,0,0,1-.2-.49,1.79,1.79,0,0,1-.07-.53h0V38.39h0a1.79,1.79,0,0,1,.07-.53,1.87,1.87,0,0,1,.2-.49,2.59,2.59,0,0,1,.31-.41h0a2,2,0,0,1,.4-.31,2.33,2.33,0,0,1,.49-.21,2.19,2.19,0,0,1,.53-.07h24v4H97v3.41h22v.45Zm60.89,0v3.82h-22V51.5h22v4h-24a2.19,2.19,0,0,1-.53-.07,2.33,2.33,0,0,1-.49-.21,2,2,0,0,1-.4-.31h0a2.1,2.1,0,0,1-.31-.41,1.87,1.87,0,0,1-.2-.49,2.18,2.18,0,0,1-.08-.53h0V38.39h0a2.18,2.18,0,0,1,.08-.53,1.87,1.87,0,0,1,.2-.49,2.1,2.1,0,0,1,.31-.41h0a2,2,0,0,1,.4-.31,2.33,2.33,0,0,1,.49-.21,2.19,2.19,0,0,1,.53-.07h24v4h-22v3.41h22v.45Zm147.58-7.46V54h0a1.87,1.87,0,0,1,0,.42,2,2,0,0,1-.13.39h0a2.12,2.12,0,0,1-.21.36,2.61,2.61,0,0,1-.27.31l-.13.12h-2.48l-.11-.08L303.85,41.69V55.55h-4V37.86a1.64,1.64,0,0,1,0-.38,2.3,2.3,0,0,1,.1-.35h0a2.55,2.55,0,0,1,.17-.33h0a2.09,2.09,0,0,1,.23-.29l.13-.15h2.74l.12.08,20.05,13.68V36.36h4.05Zm29.37,7.46V48.1h-22v3.4h22v4h-24a2.83,2.83,0,0,1-.53-.07,2.33,2.33,0,0,1-.49-.21,2.1,2.1,0,0,1-.41-.31h0a2,2,0,0,1-.31-.4,2.33,2.33,0,0,1-.21-.49,2.19,2.19,0,0,1-.07-.53h0V38.4h0a2.35,2.35,0,0,1,.07-.54,2.5,2.5,0,0,1,.21-.48,2.1,2.1,0,0,1,.31-.41h0a2.1,2.1,0,0,1,.41-.31,2.33,2.33,0,0,1,.49-.21,2.19,2.19,0,0,1,.53-.07h24v4h-22v3.41h22v.44Z"/><path class="cls-4" d="M186.32,71.46a9.39,9.39,0,0,1-1.87-5.41,8.78,8.78,0,0,1,1.87-5.5h1.09a8.94,8.94,0,0,0-1.92,5.27,10.58,10.58,0,0,0,1.92,5.64Z"/><path class="cls-4" d="M192.1,62.37h-3.65v-1.2h12.11v1.2h-3.68l3.79,2.8H198.4l-3.91-2.8-3.88,2.8h-2.3Zm1.53,8.13V67.3h-5.3V66.1h12.34v1.2h-5.26v3.2Z"/><path class="cls-4" d="M204.21,65.82a8.89,8.89,0,0,0-1.93-5.27h1.1a8.68,8.68,0,0,1,1.89,5.5,9.28,9.28,0,0,1-1.89,5.41h-1.1A10.51,10.51,0,0,0,204.21,65.82Z"/><path class="cls-4" d="M214.3,64.15h-1a2.3,2.3,0,0,1-1.17,1.47,4.13,4.13,0,0,1-2.23.59,3.93,3.93,0,0,1-2.47-.77,2.28,2.28,0,0,1-1-1.86,2.24,2.24,0,0,1,1-1.85,4.38,4.38,0,0,1,4.59-.21A2.75,2.75,0,0,1,213.29,63h1V61.17h1.79V70.5H214.3Zm-5.56-1.4a1.1,1.1,0,0,0,0,1.88A2,2,0,0,0,210,65a2.11,2.11,0,0,0,1.28-.38,1.1,1.1,0,0,0,0-1.88,2.07,2.07,0,0,0-1.26-.38A2.15,2.15,0,0,0,208.74,62.75Zm8.38-1.58h1.79V70.5h-1.79Z"/><path class="cls-4" d="M221.18,61.17H223v4.18h5.78v1.2h-7.56Zm10.67,1.58V61.17h1.78V70.5h-1.78V64H229.4v-1.2Z"/><path class="cls-4" d="M238.38,62.37H236v-1.2h7.48v1.2h-2.39l2.65,4.38h-1.79l-2.21-3.69-2.22,3.69h-1.78Zm8.19-1.2h1.79V70.5h-1.79Z"/><path class="cls-4" d="M252.64,69.13h10.44v1.2H250.86V67.64h1.78ZM253.1,66h-2.19v-1.2h1a2.2,2.2,0,0,1-.7-.76,1.91,1.91,0,0,1,.65-2.57,3.91,3.91,0,0,1,4.32,0,2,2,0,0,1,.91,1.64,1.78,1.78,0,0,1-.27.93,2.57,2.57,0,0,1-.71.76h1.87V66h-3.05v1.6H253.1Zm0-3.68a.91.91,0,0,0-.39.74.94.94,0,0,0,.39.74,1.5,1.5,0,0,0,.92.31,1.32,1.32,0,0,0,.89-.31,1,1,0,0,0,.36-.74.93.93,0,0,0-.36-.74A1.31,1.31,0,0,0,254,62,1.49,1.49,0,0,0,253.09,62.27Zm8.21,3.45V61.17h1.78v5.75h-4.23v-1.2Z"/></svg>