<svg xmlns="http://www.w3.org/2000/svg" width="566.482" height="1426.744" viewBox="0 0 566.482 1426.744">
  <path id="빼기_1" data-name="빼기 1" d="M927.5,1609.222V185.55a336.115,336.115,0,0,1,45.821-3.073,389.175,389.175,0,0,1,40.613,2.185c13.1,1.381,26.6,3.442,40.122,6.128a539.405,539.405,0,0,1,76.836,21.527,634.383,634.383,0,0,1,69.078,29.621,616.693,616.693,0,0,1,57.458,32.6,496.809,496.809,0,0,1,114.9,101.985,507.638,507.638,0,0,1,78.714,132.68c6.363,15.723,12.064,32.063,16.944,48.568,4.916,16.625,9.11,33.795,12.466,51.031A757.4,757.4,0,0,1,1493.2,721.43a981,981,0,0,1-2.494,118.825,1063.115,1063.115,0,0,1-16.2,118.138,945.415,945.415,0,0,1-28.374,110.568,717.277,717.277,0,0,1-28.692,74.582,489.339,489.339,0,0,1-34.141,63.269c-6.131,9.472-12.491,18.372-18.9,26.454a256.477,256.477,0,0,1-20.016,22.5,191.232,191.232,0,0,1-21.044,18.172,144.053,144.053,0,0,1-21.988,13.468c-49.879,24.439-84.631,75.21-121.424,128.961l0,.007c-14.154,20.678-28.79,42.059-44.733,62.6-8.608,11.092-16.809,20.937-25.07,30.1a381.663,381.663,0,0,1-27.879,28.017,311.867,311.867,0,0,1-31.444,24.98,272.928,272.928,0,0,1-76.61,37.021,303.764,303.764,0,0,1-46.678,10.128Z" transform="translate(-927.5 -182.477)" fill="rgba(144,202,249,0.85)"/>
</svg>
