<svg xmlns="http://www.w3.org/2000/svg" width="597.481" height="1429.582" viewBox="0 0 597.481 1429.582">
  <path id="빼기_2" data-name="빼기 2" d="M896.5,1612.06V191.491a303.227,303.227,0,0,1,38.206-6.851,340.142,340.142,0,0,1,38.614-2.162,389.194,389.194,0,0,1,40.613,2.185c13.1,1.381,26.6,3.442,40.122,6.128a539.479,539.479,0,0,1,76.837,21.527,634.462,634.462,0,0,1,69.078,29.621,616.678,616.678,0,0,1,57.458,32.6,496.8,496.8,0,0,1,114.9,101.986A507.621,507.621,0,0,1,1451.038,509.2a542.311,542.311,0,0,1,29.41,99.6,743.212,743.212,0,0,1,12.048,98.555,949.666,949.666,0,0,1,.124,103.986c-1.812,34.705-5.432,69.945-10.758,104.741a1021.145,1021.145,0,0,1-20.6,100.818,836.942,836.942,0,0,1-29.393,92.219,577.672,577.672,0,0,1-37.147,78.942c-13.792,23.987-28.548,44.507-43.858,60.989a205.019,205.019,0,0,1-24.12,22.3,147.116,147.116,0,0,1-25.406,16.058c-49.877,24.438-84.634,75.208-121.431,128.958-15.23,22.247-30.977,45.248-48.339,67.2-9.374,11.852-18.354,22.319-27.452,32a357.466,357.466,0,0,1-30.891,29.349,296.745,296.745,0,0,1-35.27,25.512c-6.375,3.915-12.959,7.6-19.57,10.945-6.831,3.46-13.9,6.67-21.016,9.541-7.332,2.959-14.929,5.646-22.579,7.988-7.869,2.408-16.031,4.523-24.261,6.286-8.446,1.81-17.213,3.3-26.058,4.437-9.062,1.162-18.474,1.983-27.973,2.438Z" transform="translate(-896.5 -182.478)" fill="rgba(227,242,253,0.85)"/>
</svg>
